<svg width="25" height="24" viewBox="0 0 25 24" fill="none" xmlns="http://www.w3.org/2000/svg">
<path d="M24.5238 12.2756C24.5238 11.4599 24.4577 10.6397 24.3166 9.83722H12.9978V14.4582H19.4795C19.2106 15.9486 18.3463 17.2669 17.0809 18.1047V21.1031H20.9478C23.2187 19.013 24.5238 15.9265 24.5238 12.2756Z" fill="#4285F4"/>
<path d="M12.9978 24C16.2342 24 18.9636 22.9373 20.9522 21.1031L17.0852 18.1047C16.0094 18.8367 14.6204 19.2511 13.0022 19.2511C9.87157 19.2511 7.21715 17.1391 6.26474 14.2994H2.27429V17.3904C4.3114 21.4426 8.46059 24 12.9978 24Z" fill="#34A853"/>
<path d="M6.26034 14.2994C5.75768 12.8091 5.75768 11.1953 6.26034 9.70492V6.61398H2.2743C0.572302 10.0048 0.572302 13.9996 2.2743 17.3904L6.26034 14.2994Z" fill="#FBBC04"/>
<path d="M12.9978 4.74884C14.7086 4.72238 16.3621 5.36614 17.6011 6.54784L21.0272 3.12179C18.8578 1.08468 15.9785 -0.03529 12.9978 -1.53086e-05C8.46059 -1.53086e-05 4.3114 2.5574 2.27429 6.61398L6.26033 9.70493C7.20834 6.86091 9.86716 4.74884 12.9978 4.74884Z" fill="#EA4335"/>
</svg>
